<?xml version="1.0" standalone="no"?>
<!DOCTYPE svg PUBLIC "-//W3C//DTD SVG 20010904//EN"
 "http://www.w3.org/TR/2001/REC-SVG-20010904/DTD/svg10.dtd">
<svg version="1.0" xmlns="http://www.w3.org/2000/svg"
 width="271.000000pt" height="271.000000pt" viewBox="0 0 271.000000 271.000000"
 preserveAspectRatio="xMidYMid meet">
<metadata>
Created by potrace 1.11, written by Peter Selinger 2001-2013
</metadata>
<g transform="translate(0.000000,271.000000) scale(0.100000,-0.100000)"
fill="#000000" stroke="none">
<path d="M2161 2636 c-50 -16 -78 -33 -124 -78 -33 -31 -75 -65 -94 -75 -18
-9 -33 -21 -33 -25 0 -5 -5 -8 -10 -8 -13 0 -49 -36 -72 -71 -9 -15 -27 -68
-38 -119 -19 -81 -27 -97 -62 -132 -40 -40 -126 -87 -170 -92 -13 -2 -36 -9
-53 -15 -16 -6 -43 -17 -60 -23 -16 -6 -37 -16 -45 -22 -13 -9 14 30 31 44 7
7 21 40 26 65 12 52 23 76 34 69 5 -3 9 -2 9 3 0 4 12 14 28 20 59 27 84 129
56 236 -18 69 -11 111 30 173 20 29 36 56 36 58 0 7 -64 -28 -68 -36 -2 -5 -9
-8 -15 -8 -22 0 -127 -109 -132 -137 -2 -10 -4 -18 -5 -18 -5 0 -11 -46 -10
-75 6 -107 5 -128 -9 -163 -14 -37 -81 -97 -108 -97 -7 0 -13 -5 -13 -11 0 -5
-4 -8 -9 -5 -5 3 -14 -1 -21 -9 -7 -8 -16 -15 -21 -15 -29 0 -130 -83 -184
-152 -12 -15 -48 -88 -51 -103 -1 -5 -8 -23 -15 -40 -7 -16 -13 -72 -15 -123
-1 -52 -6 -98 -10 -102 -5 -5 -22 -11 -39 -14 -16 -3 -31 -10 -33 -16 -2 -5
-9 -7 -14 -4 -7 4 -8 2 -4 -5 4 -6 13 -11 19 -10 42 5 47 -7 17 -39 -21 -22
-54 -128 -44 -143 3 -5 1 -9 -3 -9 -5 0 -10 -10 -10 -22 -4 -47 -12 -85 -31
-140 -15 -46 -17 -58 -6 -58 8 0 14 -5 14 -10 0 -6 -4 -9 -9 -8 -13 4 -71 -60
-71 -79 0 -28 24 -87 40 -98 25 -16 50 -13 61 7 5 10 14 16 20 13 5 -4 9 -1 9
4 0 6 6 11 14 11 7 0 19 7 26 15 7 8 16 12 21 10 17 -11 -4 -34 -51 -54 -39
-17 -47 -24 -43 -41 3 -11 12 -21 19 -21 8 -1 17 -3 22 -4 4 -2 17 -6 28 -10
14 -4 24 -18 28 -37 5 -27 8 -29 23 -17 11 10 14 10 9 2 -15 -25 3 -12 24 17
19 26 25 44 34 96 1 7 26 54 55 105 50 88 100 148 125 150 6 0 18 2 26 3 8 2
26 -1 40 -5 25 -7 24 -7 -5 -9 -16 -1 -33 -2 -37 -1 -11 1 -79 -66 -82 -80 -1
-8 -12 -32 -24 -55 -11 -23 -23 -64 -26 -92 -5 -48 -26 -103 -50 -128 -6 -6
-18 -21 -26 -33 -8 -11 -20 -21 -27 -21 -7 0 -13 -3 -13 -8 0 -11 -62 -43 -88
-45 -12 -1 -22 -4 -22 -7 0 -3 -26 -4 -57 -2 -84 5 -83 5 -83 14 0 4 -6 8 -12
8 -16 1 -66 46 -100 91 -26 34 -88 147 -88 160 0 4 -10 29 -22 56 -11 26 -23
57 -25 68 -2 11 -8 24 -13 29 -12 12 -13 46 -2 46 4 0 21 -28 37 -62 29 -60
49 -88 63 -88 4 0 7 94 6 210 l-1 210 51 39 c67 51 202 131 210 124 3 -4 6 -1
6 5 0 6 17 16 38 22 54 18 69 35 67 75 -1 19 3 35 8 35 5 0 4 6 -2 13 -6 8 -7
17 -3 22 4 4 -11 5 -33 2 -40 -7 -202 -80 -265 -121 -137 -89 -146 -95 -187
-135 -25 -23 -25 -26 -19 -140 3 -64 7 -136 10 -161 2 -25 0 -49 -4 -55 -8
-10 -6 -221 2 -265 15 -81 99 -270 119 -270 5 0 9 -6 9 -13 0 -19 102 -139
184 -216 21 -20 46 -43 55 -52 25 -25 171 -133 216 -159 22 -13 43 -29 47 -34
4 -6 8 -8 8 -4 0 3 37 -16 83 -43 45 -27 88 -49 96 -49 25 0 264 138 282 163
3 5 9 7 12 5 3 -1 17 7 31 20 15 12 30 22 35 22 5 0 11 3 13 8 2 4 32 32 68
62 102 86 205 196 252 269 23 34 81 143 84 156 1 6 9 26 18 47 8 20 18 56 22
80 9 66 12 608 2 608 -4 0 -8 6 -8 13 0 6 -23 28 -51 47 -28 19 -56 40 -62 46
-7 5 -27 17 -44 25 -18 7 -33 17 -33 20 0 8 -190 102 -261 129 -63 24 -80 26
-129 17 -27 -5 -20 0 30 24 61 28 206 118 240 147 88 77 126 130 136 190 3 15
7 33 9 40 2 6 -1 12 -7 12 -9 0 -9 3 -1 11 8 8 8 20 2 36 -6 16 -5 22 1 18 6
-4 7 2 2 17 -7 21 -8 44 -2 58 1 3 3 12 5 20 14 66 46 96 141 131 66 24 89 46
104 101 6 20 16 43 23 50 17 19 40 48 36 47 -2 -1 -33 -11 -68 -23z m-851
-720 c0 -3 -4 -8 -10 -11 -5 -3 -10 -1 -10 4 0 6 5 11 10 11 6 0 10 -2 10 -4z
m-47 -33 c-30 -21 -115 -138 -137 -190 -10 -23 -19 -59 -20 -80 -2 -37 -5 -43
-26 -43 -7 0 -7 7 0 21 7 11 9 23 6 26 -3 4 -1 12 4 19 6 6 10 16 8 20 -1 5 6
26 15 48 9 21 17 41 17 43 0 3 11 18 25 35 14 16 25 36 25 44 0 9 3 13 8 11 4
-2 17 7 29 20 12 13 19 23 15 24 -10 1 30 18 43 18 6 0 0 -7 -12 -16z m207
-143 c0 -5 -5 -10 -11 -10 -5 0 -7 5 -4 10 3 6 8 10 11 10 2 0 4 -4 4 -10z
m-43 -24 c-10 -8 -17 -18 -16 -23 3 -12 33 -32 41 -27 20 13 308 -115 390
-173 26 -18 50 -33 53 -33 3 0 13 -7 22 -15 10 -8 27 -21 37 -28 12 -9 19 -26
19 -46 0 -17 5 -31 11 -31 7 0 8 -3 1 -8 -6 -4 -11 -82 -11 -197 -2 -235 -5
-280 -22 -330 -23 -70 -76 -175 -92 -180 -11 -5 -12 -3 -3 6 6 6 9 17 7 24 -3
7 -1 16 4 19 6 3 8 15 5 26 -3 11 -1 20 5 20 11 0 9 253 -2 304 -20 87 -110
209 -186 253 -30 17 -48 23 -102 38 -5 2 -9 3 -10 5 -6 4 -45 10 -98 16 -30 3
-56 7 -58 9 -2 2 10 18 27 36 17 17 31 28 31 24 0 -4 14 9 30 30 17 21 30 41
30 44 0 4 9 17 20 29 12 12 17 22 13 22 -4 0 3 7 15 16 12 8 20 19 17 24 -5 9
-112 6 -144 -5 -10 -3 -30 -8 -43 -11 -121 -27 -125 -27 -131 -11 -6 17 13 67
26 67 4 0 7 6 7 13 0 14 45 59 90 89 30 21 43 23 17 4z m73 -247 c0 -6 -15
-26 -34 -45 -18 -18 -31 -36 -27 -40 3 -4 1 -4 -5 -1 -6 3 -22 0 -35 -7 -20
-10 -27 -10 -37 1 -10 10 -9 18 5 37 34 47 133 87 133 55z m-368 -154 c23 4
12 -22 -13 -30 -10 -4 -23 -3 -29 0 -5 3 -10 0 -11 -7 0 -7 -4 -4 -8 7 -6 15
-3 23 13 32 11 6 23 8 26 4 3 -5 13 -7 22 -6z m-189 -245 c10 -12 9 -12 -4 -2
-9 6 -18 9 -21 6 -3 -3 -9 -1 -12 4 -9 15 22 8 37 -8z m-105 -83 c-7 -7 -22
-19 -32 -27 -18 -13 -19 -13 -11 0 16 29 38 49 46 44 5 -3 3 -11 -3 -17z m815
-4 c-3 -7 0 -13 5 -13 6 0 21 -33 33 -72 12 -40 24 -80 27 -88 13 -37 7 -138
-12 -215 -27 -106 -82 -195 -171 -277 -49 -46 -64 -49 -35 -5 12 17 24 40 27
50 3 9 9 17 13 17 9 0 45 91 42 104 -2 4 1 13 6 20 4 6 7 17 6 24 -1 6 -2 22
-4 35 -1 15 -3 17 -7 7 -16 -41 -137 -174 -198 -216 -65 -44 -230 -94 -257
-78 -6 4 -13 2 -17 -4 -4 -6 -12 -7 -19 -3 -9 5 -6 10 10 17 143 64 191 102
234 189 26 53 42 159 26 169 -4 2 -9 -4 -9 -15 -2 -20 -51 -87 -65 -88 -4 -1
-19 -13 -33 -27 -24 -24 -117 -72 -153 -79 -9 -2 -17 -4 -17 -5 0 -7 -111 -4
-150 5 -60 13 -159 62 -183 89 -9 11 -12 16 -6 13 7 -4 29 -9 50 -12 22 -3 50
-7 64 -11 23 -5 138 -8 150 -4 3 1 19 4 35 6 55 9 116 44 171 100 30 31 54 60
54 64 0 5 6 15 13 22 25 26 68 134 71 179 1 19 6 42 12 52 10 17 12 16 30 -10
10 -15 19 -30 20 -33 0 -3 7 -18 14 -35 8 -16 14 -34 15 -40 0 -5 4 -15 7 -21
4 -6 8 -28 9 -50 1 -21 5 -43 8 -49 3 -5 6 -16 7 -25 2 -8 5 -24 8 -35 2 -11
5 -24 5 -29 1 -11 51 42 51 55 0 5 4 9 9 9 4 0 20 26 33 58 37 84 49 135 50
218 1 34 5 51 14 51 6 0 10 -6 7 -14z"/>
</g>
</svg>
